<svg width="40" height="40" viewBox="0 0 40 40" fill="none" xmlns="http://www.w3.org/2000/svg">
<path d="M20.044 40H19.956C8.95238 40 0 31.0476 0 20.044V19.956C0 8.95236 8.95238 0 19.956 0H20.044C31.0476 0 40 8.95236 40 19.956V20.044C40 31.0476 31.0476 40 20.044 40ZM19.956 1.35396C9.69841 1.35396 1.35396 9.69839 1.35396 19.956V20.044C1.35396 30.3016 9.69841 38.646 19.956 38.646H20.044C30.3016 38.646 38.646 30.3016 38.646 20.044V19.956C38.646 9.69839 30.3016 1.35396 20.044 1.35396H19.956Z" fill="white"/>
<path d="M25.9797 8.53943H14.0215C10.7179 8.53943 8.03027 11.227 8.03027 14.5307V25.4707C8.03027 28.7743 10.7179 31.4619 14.0215 31.4619H25.9797C29.2834 31.4619 31.971 28.7743 31.971 25.4707V14.5307C31.971 11.227 29.2834 8.53943 25.9797 8.53943ZM10.1438 14.5307C10.1438 12.3928 11.8836 10.6529 14.0215 10.6529H25.9797C28.1176 10.6529 29.8574 12.3928 29.8574 14.5307V25.4707C29.8574 27.6086 28.1176 29.3484 25.9797 29.3484H14.0215C11.8836 29.3484 10.1438 27.6086 10.1438 25.4707V14.5307Z" fill="white"/>
<path d="M20.0006 25.5722C23.0728 25.5722 25.5735 23.0728 25.5735 19.9993C25.5735 16.9258 23.0741 14.4264 20.0006 14.4264C16.9271 14.4264 14.4277 16.9258 14.4277 19.9993C14.4277 23.0728 16.9271 25.5722 20.0006 25.5722ZM20.0006 16.5413C21.9084 16.5413 23.46 18.0929 23.46 20.0006C23.46 21.9084 21.9084 23.46 20.0006 23.46C18.0929 23.46 16.5413 21.9084 16.5413 20.0006C16.5413 18.0929 18.0929 16.5413 20.0006 16.5413Z" fill="white"/>
<path d="M26.0894 15.3269C26.9167 15.3269 27.591 14.654 27.591 13.8254C27.591 12.9968 26.918 12.3239 26.0894 12.3239C25.2608 12.3239 24.5879 12.9968 24.5879 13.8254C24.5879 14.654 25.2608 15.3269 26.0894 15.3269Z" fill="white"/>
</svg>
