<svg width="40" height="40" viewBox="0 0 40 40" fill="none" xmlns="http://www.w3.org/2000/svg">
<path d="M20.044 40H19.956C8.95239 40 0 31.0476 0 20.044V19.956C0 8.95239 8.95239 0 19.956 0H20.044C31.0476 0 40 8.95239 40 19.956V20.044C40 31.0476 31.0476 40 20.044 40ZM19.956 1.35396C9.69842 1.35396 1.35396 9.69842 1.35396 19.956V20.044C1.35396 30.3016 9.69842 38.646 19.956 38.646H20.044C30.3016 38.646 38.646 30.3016 38.646 20.044V19.956C38.646 9.69842 30.3016 1.35396 20.044 1.35396H19.956Z" fill="white"/>
<path d="M9.89337 13.522C9.38428 13.0495 9.1311 12.4646 9.1311 11.7686C9.1311 11.0727 9.38563 10.462 9.89337 9.98816C10.4025 9.51563 11.0578 9.27869 11.8607 9.27869C12.6636 9.27869 13.2932 9.51563 13.8009 9.98816C14.31 10.4607 14.5632 11.0551 14.5632 11.7686C14.5632 12.4822 14.3086 13.0495 13.8009 13.522C13.2918 13.9945 12.646 14.2315 11.8607 14.2315C11.0754 14.2315 10.4025 13.9945 9.89337 13.522ZM14.1353 16.2326V30.72H9.55759V16.2326H14.1353Z" fill="white"/>
<path d="M29.3741 17.6637C30.372 18.7469 30.8703 20.2335 30.8703 22.1264V30.464H26.5227V22.714C26.5227 21.7594 26.275 21.0175 25.7808 20.4894C25.2866 19.9614 24.6204 19.696 23.7864 19.696C22.9524 19.696 22.2862 19.96 21.792 20.4894C21.2978 21.0175 21.05 21.7594 21.05 22.714V30.464H16.6768V16.192H21.05V18.0848C21.4928 17.4538 22.0899 16.9556 22.84 16.5887C23.5901 16.2217 24.4336 16.0389 25.3719 16.0389C27.0427 16.0389 28.3776 16.5805 29.3741 17.6637Z" fill="white"/>
</svg>
