<svg xmlns="http://www.w3.org/2000/svg" 
xmlns:xlink="http://www.w3.org/1999/xlink" 
version="1.0" x="0px" y="0px" 
viewBox="0 0 100 125" 
enable-background="new 0 0 100 100" 
xml:space="preserve">
<g>
<g>
<g>
<polygon points="44.846,71.706 42.931,69.766 60.18,50.714 42.931,31.662 44.846,29.722 66.105,50.714    "/></g></g><g><path d="M50.001,10.333c22.056,0,39.999,17.943,39.999,40s-17.943,40-39.999,40C27.944,90.333,10,72.39,10,50.333    S27.944,10.333,50.001,10.333z M50.001,86.498c19.941,0,36.164-16.223,36.164-36.165S69.942,14.168,50.001,14.168    S13.835,30.391,13.835,50.333S30.06,86.498,50.001,86.498z"/>
</g>
</g>
<text x="0" y="115" 
fill="#000000" font-size="5px" font-weight="bold" font-family="'Helvetica Neue', Helvetica, Arial-Unicode, Arial, Sans-serif">Created by Mundo</text><text x="0" y="120" 
fill="#000000" font-size="5px" font-weight="bold" font-family="'Helvetica Neue', Helvetica, Arial-Unicode, Arial, Sans-serif">from the Noun Project</text>
</svg>