<svg xmlns="http://www.w3.org/2000/svg" version="1.1" viewBox="-5.0 -10.0 110.0 135.0" fill="white">
 <path d="m32.168 54.312-1.3555 1.4961 5.2734 4.7773 1.3555-1.5-5.2734-4.7773zm10.172 2.6484-3.1836
  0.91406-5.9453-5.3867 0.60156-3.2617 8.5352 7.7305zm-1.1758-25.422c-3.4922-0.92578-7.2148-0.36328-10.277 1.5547-3.0625 1.9141-5.1953 5.0156-5.8867 
  8.5625 3.1133-2.7891 7.5781-3.4805 11.387-1.7578 1.3672-2.9102 2.9648-5.707 4.7773-8.3633zm19.688 14.898v0.003906c1.9844 4.5391 1.6133 9.7617-0.99219 
  13.977-2.6016 4.2148-7.1055 6.8867-12.055 7.1445-0.46484 0.042969-0.89844-0.23047-1.0625-0.66797-0.16016-0.43359-0.011719-0.92578 0.37109-1.1953 3.5938-2.5234 
  4.6719-7.375 2.4883-11.184-0.39453 0.22266-0.78906 0.44141-1.1914 0.66406l-2.9297 3.2344h-0.003907c-0.33984 0.375-0.90234 0.44531-1.3242 0.16797l-4.6992 
  1.3477-2.5312 2.793v0.003906c-0.38281 0.41797-1.0312 0.44922-1.4492 0.070313l-6.7969-6.1562c-0.41797-0.37891-0.45312-1.0273-0.070312-1.4492l2.5352-2.8008 
  0.87891-4.8008-0.003906 0.003906c-0.32031-0.39453-0.30469-0.96094 0.035156-1.3398l2.9414-3.2461c0.17578-0.41797 0.35547-0.83203 
  0.53906-1.2383h-0.003906c-4.0039-1.8008-8.7227-0.25391-10.883 3.5703-0.23047 0.41016-0.71094 0.60938-1.1641 0.48828s-0.76562-0.53125-0.76172-1.0039c-0.22656-4.9453 1.9883-9.6836 5.9219-12.688 3.9375-3.0039 9.0938-3.8867 13.805-2.3633 7.293-9.6055 16.633-14.074 28.027-13.398v-0.003906c0.48047 0.03125 0.87891 0.39062 0.95312 0.86719 1.332 7.3438-0.089843 14.926-3.9922 21.289-1.8242 2.9258-4.0391 5.5898-6.582 7.918zm-9.4844 7.0352v0.003906c2.0859 3.6172 1.8398 8.1289-0.625 11.5 3.4609-1.0391 6.3398-3.4688 7.9453-6.707 1.6094-3.2383 1.8008-6.9961 0.53125-10.383-2.4648 2.0664-5.0898 3.9375-7.8516 5.5859zm13.18-14.301c-0.64453-1.0859-1.3477-2.1367-2.1133-3.1406l-1.0703 7.0078h0.003907c1.1484-1.2109 2.2109-2.5039 3.1797-3.8672zm-18.754-10.238 6.9062-1.7461c-1.0703-0.67578-2.1836-1.2891-3.3281-1.832-1.2773 
  1.1055-2.4766 2.3008-3.582 3.5781zm-4.6484 20.801 5.1758 4.6914-1.6797 1.8516-10.379-9.4062 1.6797-1.8516 5.1992 4.7148zm27.832-20.055c-5.2969-0.5-9.6562-4.3828-10.762-9.5859-2.5273 0.93359-4.9102 2.2266-7.0664 3.8398 1.6133 0.83594 3.168 1.7891 4.6406 2.8477 0.33203 0.24219 0.49219 0.65234 0.41016 1.0508-0.085938 0.40234-0.39844 0.71484-0.79688 0.79688l-11.742 2.9727c-2.6211 3.6367-4.8242 7.5625-6.5586 11.699l4.6602 4.2188 5.3477-5.8984h-0.003906c0.38281-0.42188 1.0312-0.45312 1.4492-0.070313 0.42187 0.37891 0.45312 1.0273 0.074218 1.4492l-5.3477 5.8984 4.6367 4.1992-0.003907 
  0.003906c3.9297-2.1289 7.6094-4.6914 10.965-7.6406l0.039063-0.035157 1.8281-12v-0.003906c0.0625-0.41016 0.36328-0.74219 
  0.76562-0.84375 0.40234-0.10156 0.82812 0.046875 1.0781 0.375 0.78906 0.91406 1.5234 1.8516 2.1953 2.8008 0.35156 0.49609 
  0.6875 1 1.0078 1.5117 1.4297-2.3555 2.5039-4.9141 3.1836-7.5859zm-8.793-10.227c0.85547 4.5117 4.6445 7.8789 9.2227 8.2031 
  0.51172-3.0664 0.55078-6.1914 0.11328-9.2695-3.1484-0.13672-6.3008 0.22656-9.3359 1.0664zm-4.2188 16.789h-0.003906c-0.046876-0.91016-0.53906-1.7383-1.3164-2.2109-0.78125-0.47266-1.7422-0.52734-2.5742-0.15234-0.82812 0.37891-1.4141 1.1445-1.5703 2.043-0.15234 0.89844 0.14844 1.8125 0.80469 2.4453 0.035156 0.027343 0.070312 0.058593 0.10156 0.089843 1.1055 0.96484 2.7773 0.89453 3.7969-0.16797 0.03125-0.035156 0.058594-0.066406 0.089844-0.097656 0.46875-0.53906 0.71094-1.2383 0.67578-1.9492zm0.47656-3.4258v0.003906c-1.4375-1.3047-3.5195-1.6172-5.2734-0.78906-1.7578 0.82422-2.8477 2.6211-2.7617 4.5625 0.085938 1.9375 1.3281 3.6328 3.1484 4.3008 1.8242 0.66797 3.8672 0.17578 5.1836-1.25 0.87109-0.94141 1.3281-2.1914 1.2734-3.4727-0.054688-1.2812-0.62109-2.4883-1.5703-3.3516zm-29.102 27.188-4.4961 4.4961c-0.19531 0.19141-0.30859 0.45703-0.30859 0.73047-0.003906 0.27344 0.10547 0.53906 0.30078 0.73438 0.19531 0.19531 0.45703 0.30469 0.73437 0.30078 0.27344 0 0.53516-0.10938 0.73047-0.30469l4.4922-4.4922v-0.003906c0.40234-0.40234 0.40234-1.0547 0-1.457-0.40234-0.40234-1.0547-0.40234-1.457 0zm3.6992 1.8711-4.4922 4.4922v0.003906c-0.20703 0.19141-0.33203 0.45703-0.33594 0.73828-0.007813 0.28125 0.10156 0.55469 
  0.29687 0.75391 0.19922 0.19922 0.47266 0.30859 0.75391 0.30078 0.28125-0.003906 0.54688-0.125 0.73828-0.33594l4.4922-4.4922c0.40234-0.40234 0.40234-1.0547 0-1.457-0.40234-0.40234-1.0547-0.40234-1.457 0zm5.1992-45.844-12.34 0.003906v9.3359h12.34zm-13.371-2.0625 0.003906 0.003906c-0.57031 0-1.0312 0.45703-1.0352 1.0273v11.398c0 0.57031 0.46094 1.0312 1.0312 1.0312h14.402c0.56641 0 1.0312-0.46094 1.0312-1.0312v-11.398c0-0.57031-0.46094-1.0312-1.0312-1.0312zm51.539-3.8086-56.844 0.003906c-1.0039 0.003907-1.8203 0.82031-1.8242 1.8242v75.785h-3.8281v-80.711h62.5v3.1016zm-46.602 73.914 1.4062 2.4336 0.007812 0.003907c0.15625 
  0.27734 0.4375 0.46484 0.75391 0.50781s0.63281-0.066406 0.85938-0.29297l4.6289-4.625c0.40234-0.40234 0.40234-1.0547
   0-1.457-0.40625-0.40234-1.0586-0.40234-1.4609 0l-3.6797 3.6797-0.73437-1.2734v0.003907c-0.28516-0.49219-0.91016-0.66016-1.4023-0.37891-0.49219 0.28516-0.66016 0.91016-0.37891 1.4023zm17.297-2.1523h20.141c0.57031 0 1.0312-0.46094 1.0312-1.0312s-0.46094-1.0312-1.0312-1.0312h-20.141c-0.57031 0-1.0312 0.46094-1.0312 1.0312s0.46094 1.0312 1.0312 1.0312zm0 5.6016 25.555-0.003907c0.27734 0.011719 0.55078-0.09375 0.75-0.28906 0.19922-0.19531 0.3125-0.46094 0.3125-0.73828 0-0.28125-0.11328-0.54688-0.3125-0.74219s-0.47266-0.29688-0.75-0.28906h-25.555c-0.55859 0.015624-1 0.47266-1 1.0312 0 0.55469 0.44141 1.0117 1 1.0273zm-8.2539-8.9609-10.266-0.003906v10.262h10.266v-10.266zm-11.297-2.0625c-0.57031 0-1.0312 0.46094-1.0312 1.0312v12.32c0 0.57031 0.46094 1.0312 1.0312 1.0312h12.328c0.56641 0 1.0273-0.46094 1.0273-1.0312v-12.328c0-0.56641-0.46094-1.0273-1.0273-1.0273zm59.148-0.18359h-6.7383l3.3672 5.9609zm-6.7422-43.918h6.75l-0.003906-1.4844c0-0.070312-0.042969 0.082032-0.11328 0.042969-0.33203-0.16016-0.69531-0.23828-1.0664-0.22656h-4.3867c-0.36719-0.011719-0.73438 0.066406-1.0664 0.22656-0.070312 0.039063-0.11328-0.11328-0.11328-0.042969zm-3.3164 3.9922 13.379 0.003906h0.070313v-1.9258h-13.52v1.9219-0.003906c0.023438 0.003906 0.046876 0.007812 0.070313 0.007812zm0.53125 7.3633v31.531c0 0.21484 0.0625 0.42188 
  0.1875 0.59375l4.9414 8.7461v8.3125h-62.5v-80.711h62.5v16.441h-1.1641c-1.4766 0-3.2422 0.73047-3.2422 2.2461v1.4844h-1.2539c-1.1133-0.054688-2.0664 0.79687-2.1328 1.9102v2.2383c0.035157 0.91797 0.70313 1.6875 1.6094 1.8516l-0.011719 3.3398c-0.023438 0.81641 0.37891 1.582 1.0664 2.0234zm13.375-5.3555 0.011719 3.3398c0.019531 0.8125-0.38281 1.5781-1.0703 2.0195v31.527c0.003907 0.21484-0.0625 0.42188-0.1875 0.59375l-4.9414 8.7461v9.3438c0 0.27344-0.10547 0.53516-0.30078 0.73047-0.19141 0.19141-0.45312 0.30078-0.73047 0.30078h-64.559c-0.27344 0-0.53516-0.10938-0.72656-0.30078-0.19531-0.19531-0.30469-0.45703-0.30469-0.73047v-4.1328h-4.8594c-0.57031 0-1.0312-0.46094-1.0312-1.0312v-81.98c0.003906-1.0078 0.82031-1.8203 1.8242-1.8242h62.977c1.0039 0.003906 1.8164 0.81641 1.8203 1.8242v3.3438h4.0664l0.003906-0.003907c1.0039 0.003907 1.8203 0.81641 1.8203 1.8242v16.68c1.0977-0.12891 2.2109 0.039062 3.2227 0.48438 0.69141 0.32031 1.1523 1 1.1836 1.7617v1.4844h1.2539c1.1133-0.054688 2.0664 0.79687 2.1328 1.9102v2.2383c-0.027344 0.91797-0.69531 1.6953-1.6016 1.8516zm-12.355 0.058593v3.4648h10.281v-3.4688zm1.043 16.238h8.1992v-10.715h-8.1992zm5.1289 2.0625v8.5234l-0.003906-0.003906c0.011719 0.28125-0.09375 0.55078-0.28906 0.75-0.19531 0.20312-0.46094 0.31641-0.73828 0.31641-0.28125 0-0.54688-0.11328-0.74219-0.31641-0.19531-0.19922-0.29688-0.46875-0.28906-0.75v-8.5234h-3.0703v17.5h8.1992v-17.5z" fill-rule="evenodd"/>
</svg>