<svg width="40" height="40" viewBox="0 0 40 40" fill="none" xmlns="http://www.w3.org/2000/svg">
<path d="M20.044 40H19.956C8.95236 40 0 31.0476 0 20.044V19.956C0 8.95236 8.95236 0 19.956 0H20.044C31.0476 0 40 8.95236 40 19.956V20.044C40 31.0476 31.0476 40 20.044 40ZM19.956 1.35396C9.69839 1.35396 1.35396 9.69839 1.35396 19.956V20.044C1.35396 30.3016 9.69839 38.646 19.956 38.646H20.044C30.3016 38.646 38.646 30.3016 38.646 20.044V19.956C38.646 9.69839 30.3016 1.35396 20.044 1.35396H19.956Z" fill="white"/>
<path d="M7.99654 19.34C8.05069 19.3129 8.10488 19.2872 8.15768 19.2628C9.07567 18.8377 10.0058 18.4396 10.9347 18.0415C10.9847 18.0415 11.0687 17.9833 11.1161 17.9644C11.1878 17.9332 11.2596 17.9034 11.3314 17.8723C11.4695 17.8127 11.6076 17.7545 11.7443 17.6949C12.0205 17.5771 12.2954 17.4593 12.5716 17.3416C13.1226 17.106 13.6737 16.8704 14.2247 16.6334C15.3269 16.1623 16.4304 15.6897 17.5325 15.2185C18.6346 14.7473 19.7381 14.2748 20.8402 13.8036C21.9423 13.3325 23.0458 12.8599 24.1479 12.3888C25.25 11.9176 26.3535 11.4451 27.4557 10.9739C27.7007 10.8683 27.9661 10.7112 28.2288 10.6652C28.4495 10.6259 28.6647 10.5501 28.8868 10.5081C29.3079 10.4282 29.7723 10.3957 30.1757 10.5704C30.3152 10.6313 30.4438 10.7166 30.5508 10.8236C31.0626 11.33 30.9908 12.1613 30.8825 12.8735C30.1284 17.8371 29.3742 22.8021 28.6187 27.7657C28.5158 28.4467 28.375 29.1941 27.8375 29.6247C27.3825 29.9889 26.7353 30.0295 26.1734 29.8751C25.6115 29.7194 25.116 29.3931 24.6299 29.0722C22.6139 27.7372 20.5965 26.4022 18.5805 25.0672C18.1012 24.7504 17.5677 24.3361 17.5731 23.7607C17.5758 23.414 17.783 23.1053 17.9942 22.8305C19.7462 20.545 22.274 18.9744 24.1547 16.7946C24.4201 16.4872 24.6286 15.9321 24.2644 15.7547C24.0477 15.6491 23.7986 15.7926 23.6009 15.9294C21.115 17.6556 18.6306 19.3833 16.1447 21.1096C15.3337 21.6728 14.4834 22.2523 13.5058 22.3904C12.6312 22.515 11.7511 22.2713 10.9049 22.0222C10.1954 21.8137 9.48725 21.5997 8.78184 21.379C8.40679 21.2626 8.01956 21.1367 7.72981 20.8727C7.44006 20.6086 7.27355 20.1646 7.44821 19.8125C7.55788 19.5918 7.77046 19.4524 7.99386 19.3386L7.99654 19.34Z" fill="white"/>
</svg>
