<?xml version="1.0" encoding="utf-8"?><svg xmlns="http://www.w3.org/2000/svg" xmlns:xlink="http://www.w3.org/1999/xlink"><symbol id="JJ01" viewBox="0 0 1303.5 943.5" style="enable-background:new 0 0 1303.5 943.5" xml:space="preserve" xmlns="http://www.w3.org/2000/svg"><style type="text/css">.ist0{fill:#48276C;}.st1{opacity:0.25;}.st2{opacity:0.44;fill:#492767;}.st3{opacity:0.46;}.st4{fill:#492767;}</style><g><path class="ist0" d="M1097.7,616.4c-41.9,64.7-101.2,105.9-177.7,123.6c-76.5,17.7-170.7,16.2-282.5-4.4l11-123.6   c82.4,17.7,150.8,22.1,205.2,13.2c54.4-8.8,96.7-36.1,126.9-81.7c27.2-41.2,45.1-101.7,53.8-181.3H645.4   c-10.3,107.5-35,191.4-74.1,251.7c-41.9,64.7-101.2,105.9-177.7,123.6c-33.8,7.8-71,11.8-111.7,12.2   c85.3,115.7,222.6,190.7,377.4,190.7c217.8,0,400.9-148.6,453.5-349.9C1108.1,599.6,1103,608.2,1097.7,616.4z"/><path class="ist0" d="M454.4,541.1c26.9-40.8,44.8-100.4,53.5-178.9H203.5c-8.4,35.1-12.9,71.8-12.9,109.5   c0,53.5,9,104.9,25.5,152.8c42,4,79.1,3.5,111.4-1.7C381.9,614,424.2,586.7,454.4,541.1z"/><path class="ist0" d="M659.3,3.1c-165.8,0-311.5,86.1-394.9,216.1h789.7C970.9,89.2,825.2,3.1,659.3,3.1z"/></g></symbol><symbol viewBox="0 0 25 24" id="Up" xmlns="http://www.w3.org/2000/svg"><circle cx="12.8528" cy="12" r="11.5"/><path fill-rule="evenodd" clip-rule="evenodd" d="M9.15885 9.47757L12.6157 6.39201C12.8278 6.20266 13.1717 6.20266 13.3838 6.39201L16.8407 9.47757C17.0528 9.66691 17.0528 9.9739 16.8407 10.1632C16.6285 10.3526 16.2846 10.3526 16.0725 10.1632L13.5429 7.90538L13.5429 17.25L12.4566 17.25L12.4566 7.90538L9.92703 10.1632C9.7149 10.3526 9.37098 10.3526 9.15885 10.1632C8.94672 9.9739 8.94672 9.66691 9.15885 9.47757Z"/></symbol><symbol viewBox="0 0 16 9" id="arrow" xmlns="http://www.w3.org/2000/svg"><path fill-rule="evenodd" clip-rule="evenodd" d="M12.7724 0.477089L15.858 3.9339C16.0473 4.14603 16.0473 4.48996 15.858 4.70208L12.7724 8.1589C12.5831 8.37102 12.2761 8.37102 12.0868 8.1589C11.8974 7.94677 11.8974 7.60284 12.0868 7.39072L14.3446 4.86118H0V3.77481H14.3446L12.0868 1.24527C11.8974 1.03314 11.8974 0.689216 12.0868 0.477089C12.2761 0.264961 12.5831 0.264961 12.7724 0.477089Z"/></symbol><symbol viewBox="0 0 24 24" id="arrow-down" xmlns="http://www.w3.org/2000/svg"><g clip-path="url(#aclip0_672_13978)"><path d="M5.63605 18.3639L18.364 5.63594M18.364 5.63594V14.9999M18.364 5.63594L9 5.63589" stroke-width="2" stroke-linecap="round" stroke-linejoin="round"/></g><defs><clipPath id="aclip0_672_13978"><rect width="24" height="24" transform="matrix(-1 0 0 -1 24 24)"/></clipPath></defs></symbol><symbol viewBox="0 0 24 24" id="arrow-right" xmlns="http://www.w3.org/2000/svg"><g clip-path="url(#clip0_1_23487)"><path d="M3 12H21M21 12L15.6667 19M21 12L15.6667 5" stroke-width="2" stroke-linecap="round" stroke-linejoin="round"/></g><defs/></symbol><symbol viewBox="0 0 24 24" id="burger-menu-24px" xmlns="http://www.w3.org/2000/svg"><g clip-path="url(#dclip0_489_191260)"><path d="M5 12H19M5 7H19M5 17H19" stroke-width="2" stroke-linecap="round"/></g><defs><clipPath id="dclip0_489_191260"><rect width="24" height="24"/></clipPath></defs></symbol><symbol viewBox="0 0 24 24" id="cursor-pointer-24px" xmlns="http://www.w3.org/2000/svg"><g clip-path="url(#eclip0_489_191312)"><path d="M15.0597 12.8646L18.8251 11.3305C19.7541 10.952 20.2186 10.7628 20.2238 10.4323C20.229 10.1018 19.7706 9.89806 18.8539 9.49063L11.5036 6.22384C7.49895 4.44398 5.49661 3.55405 4.52533 4.52533C3.55405 5.49661 4.44398 7.49895 6.22384 11.5036L9.49063 18.8539C9.89806 19.7706 10.1018 20.229 10.4323 20.2238C10.7628 20.2186 10.952 19.7541 11.3305 18.8251L12.8646 15.0597L12.8646 15.0597C13.178 14.2905 13.3347 13.9058 13.6202 13.6202C13.9058 13.3347 14.2905 13.178 15.0597 12.8646Z" stroke-width="2" stroke-linecap="round" stroke-linejoin="round"/></g><defs><clipPath id="eclip0_489_191312"><rect width="24" height="24"/></clipPath></defs></symbol><symbol viewBox="0 0 98 96" id="github" xmlns="http://www.w3.org/2000/svg"><path fill-rule="evenodd" clip-rule="evenodd" d="M48.854 0C21.839 0 0 22 0 49.217c0 21.756 13.993 40.172 33.405 46.69 2.427.49 3.316-1.059 3.316-2.362 0-1.141-.08-5.052-.08-9.127-13.59 2.934-16.42-5.867-16.42-5.867-2.184-5.704-5.42-7.17-5.42-7.17-4.448-3.015.324-3.015.324-3.015 4.934.326 7.523 5.052 7.523 5.052 4.367 7.496 11.404 5.378 14.235 4.074.404-3.178 1.699-5.378 3.074-6.6-10.839-1.141-22.243-5.378-22.243-24.283 0-5.378 1.94-9.778 5.014-13.2-.485-1.222-2.184-6.275.486-13.038 0 0 4.125-1.304 13.426 5.052a46.97 46.97 0 0 1 12.214-1.63c4.125 0 8.33.571 12.213 1.63 9.302-6.356 13.427-5.052 13.427-5.052 2.67 6.763.97 11.816.485 13.038 3.155 3.422 5.015 7.822 5.015 13.2 0 18.905-11.404 23.06-22.324 24.283 1.78 1.548 3.316 4.481 3.316 9.126 0 6.6-.08 11.897-.08 13.526 0 1.304.89 2.853 3.316 2.364 19.412-6.52 33.405-24.935 33.405-46.691C97.707 22 75.788 0 48.854 0z"/></symbol><symbol viewBox="0 0 18 18" id="hammer" xmlns="http://www.w3.org/2000/svg"><g clip-path="url(#gclip0_1_31123)"><path d="M14.0614 6.31504L14.2235 6.40985C14.5426 6.59658 14.6519 7.01014 14.4677 7.33357L13.0897 9.75249C12.9054 10.0759 12.4974 10.1867 12.1783 10L12.0162 9.90519C11.5774 9.64839 11.2819 9.19868 11.2175 8.68926C11.171 8.32148 10.7853 8.10546 10.4533 8.26119L10.0351 8.45734C9.86342 8.53785 9.66385 8.52873 9.50003 8.43288L7.06006 7.16212C6.82203 7.02284 6.71271 6.7337 6.79794 6.46888L6.981 5.70511C7.03782 5.52856 6.96603 5.33244 6.79794 5.25852C5.45604 4.66836 3.44336 5.59012 3.44336 4.57109C3.44336 3.55207 6.82518 2.23782 9.07127 3.55208L11.5459 4.84314C11.7097 4.93899 11.8166 5.10919 11.8337 5.30012L11.8751 5.76523C11.9081 6.13452 12.2855 6.365 12.623 6.22196C13.0906 6.02382 13.6226 6.05825 14.0614 6.31504Z"/><path d="M6.89743 7L3.09466 13.7446C2.91227 14.0278 3.00191 14.4081 3.29089 14.5772L4.35235 15.1983C4.64133 15.3674 5.01114 15.2559 5.16194 14.9542L8.94286 8.07979"/></g><defs><clipPath id="gclip0_1_31123"><rect width="18" height="18"/></clipPath></defs></symbol><symbol viewBox="0 0 40 40" id="instagram" xmlns="http://www.w3.org/2000/svg"><path d="M20.044 40H19.956C8.95238 40 0 31.0476 0 20.044V19.956C0 8.95236 8.95238 0 19.956 0H20.044C31.0476 0 40 8.95236 40 19.956V20.044C40 31.0476 31.0476 40 20.044 40ZM19.956 1.35396C9.69841 1.35396 1.35396 9.69839 1.35396 19.956V20.044C1.35396 30.3016 9.69841 38.646 19.956 38.646H20.044C30.3016 38.646 38.646 30.3016 38.646 20.044V19.956C38.646 9.69839 30.3016 1.35396 20.044 1.35396H19.956Z"/><path d="M25.9797 8.53943H14.0215C10.7179 8.53943 8.03027 11.227 8.03027 14.5307V25.4707C8.03027 28.7743 10.7179 31.4619 14.0215 31.4619H25.9797C29.2834 31.4619 31.971 28.7743 31.971 25.4707V14.5307C31.971 11.227 29.2834 8.53943 25.9797 8.53943ZM10.1438 14.5307C10.1438 12.3928 11.8836 10.6529 14.0215 10.6529H25.9797C28.1176 10.6529 29.8574 12.3928 29.8574 14.5307V25.4707C29.8574 27.6086 28.1176 29.3484 25.9797 29.3484H14.0215C11.8836 29.3484 10.1438 27.6086 10.1438 25.4707V14.5307Z"/><path d="M20.0006 25.5722C23.0728 25.5722 25.5735 23.0728 25.5735 19.9993C25.5735 16.9258 23.0741 14.4264 20.0006 14.4264C16.9271 14.4264 14.4277 16.9258 14.4277 19.9993C14.4277 23.0728 16.9271 25.5722 20.0006 25.5722ZM20.0006 16.5413C21.9084 16.5413 23.46 18.0929 23.46 20.0006C23.46 21.9084 21.9084 23.46 20.0006 23.46C18.0929 23.46 16.5413 21.9084 16.5413 20.0006C16.5413 18.0929 18.0929 16.5413 20.0006 16.5413Z"/><path d="M26.0894 15.3269C26.9167 15.3269 27.591 14.654 27.591 13.8254C27.591 12.9968 26.918 12.3239 26.0894 12.3239C25.2608 12.3239 24.5879 12.9968 24.5879 13.8254C24.5879 14.654 25.2608 15.3269 26.0894 15.3269Z"/></symbol><symbol viewBox="0 0 40 40" id="linkedin" xmlns="http://www.w3.org/2000/svg"><path d="M20.044 40H19.956C8.95239 40 0 31.0476 0 20.044V19.956C0 8.95239 8.95239 0 19.956 0H20.044C31.0476 0 40 8.95239 40 19.956V20.044C40 31.0476 31.0476 40 20.044 40ZM19.956 1.35396C9.69842 1.35396 1.35396 9.69842 1.35396 19.956V20.044C1.35396 30.3016 9.69842 38.646 19.956 38.646H20.044C30.3016 38.646 38.646 30.3016 38.646 20.044V19.956C38.646 9.69842 30.3016 1.35396 20.044 1.35396H19.956Z"/><path d="M9.89337 13.522C9.38428 13.0495 9.1311 12.4646 9.1311 11.7686C9.1311 11.0727 9.38563 10.462 9.89337 9.98816C10.4025 9.51563 11.0578 9.27869 11.8607 9.27869C12.6636 9.27869 13.2932 9.51563 13.8009 9.98816C14.31 10.4607 14.5632 11.0551 14.5632 11.7686C14.5632 12.4822 14.3086 13.0495 13.8009 13.522C13.2918 13.9945 12.646 14.2315 11.8607 14.2315C11.0754 14.2315 10.4025 13.9945 9.89337 13.522ZM14.1353 16.2326V30.72H9.55759V16.2326H14.1353Z"/><path d="M29.3741 17.6637C30.372 18.7469 30.8703 20.2335 30.8703 22.1264V30.464H26.5227V22.714C26.5227 21.7594 26.275 21.0175 25.7808 20.4894C25.2866 19.9614 24.6204 19.696 23.7864 19.696C22.9524 19.696 22.2862 19.96 21.792 20.4894C21.2978 21.0175 21.05 21.7594 21.05 22.714V30.464H16.6768V16.192H21.05V18.0848C21.4928 17.4538 22.0899 16.9556 22.84 16.5887C23.5901 16.2217 24.4336 16.0389 25.3719 16.0389C27.0427 16.0389 28.3776 16.5805 29.3741 17.6637Z"/></symbol><symbol viewBox="0 0 23 19" id="mail" xmlns="http://www.w3.org/2000/svg"><path d="M20.4286 1.5H2.14286C1.51167 1.5 1 2.01167 1 2.64286V16.3571C1 16.9883 1.51167 17.5 2.14286 17.5H20.4286C21.0598 17.5 21.5714 16.9883 21.5714 16.3571V2.64286C21.5714 2.01167 21.0598 1.5 20.4286 1.5Z" stroke-width="2" stroke-linecap="round"/><path d="M1 3.21436L11.2857 9.50007L21.5714 3.21436" stroke-width="2" stroke-linecap="round"/></symbol><symbol viewBox="0 0 100 125" enable-background="new 0 0 100 100" xml:space="preserve" id="noun-arrow-79401" xmlns="http://www.w3.org/2000/svg"><g><g><g><polygon points="44.846,71.706 42.931,69.766 60.18,50.714 42.931,31.662 44.846,29.722 66.105,50.714    "/></g></g><g><path d="M50.001,10.333c22.056,0,39.999,17.943,39.999,40s-17.943,40-39.999,40C27.944,90.333,10,72.39,10,50.333    S27.944,10.333,50.001,10.333z M50.001,86.498c19.941,0,36.164-16.223,36.164-36.165S69.942,14.168,50.001,14.168    S13.835,30.391,13.835,50.333S30.06,86.498,50.001,86.498z"/></g></g><text x="0" y="115" font-size="5px" font-weight="bold" font-family="'Helvetica Neue', Helvetica, Arial-Unicode, Arial, Sans-serif">Created by Mundo</text><text x="0" y="120" font-size="5px" font-weight="bold" font-family="'Helvetica Neue', Helvetica, Arial-Unicode, Arial, Sans-serif">from the Noun Project</text></symbol><symbol viewBox="-5.0 -10.0 110.0 135.0" id="project" xmlns="http://www.w3.org/2000/svg"><path d="m32.168 54.312-1.3555 1.4961 5.2734 4.7773 1.3555-1.5-5.2734-4.7773zm10.172 2.6484-3.1836   0.91406-5.9453-5.3867 0.60156-3.2617 8.5352 7.7305zm-1.1758-25.422c-3.4922-0.92578-7.2148-0.36328-10.277 1.5547-3.0625 1.9141-5.1953 5.0156-5.8867    8.5625 3.1133-2.7891 7.5781-3.4805 11.387-1.7578 1.3672-2.9102 2.9648-5.707 4.7773-8.3633zm19.688 14.898v0.003906c1.9844 4.5391 1.6133 9.7617-0.99219    13.977-2.6016 4.2148-7.1055 6.8867-12.055 7.1445-0.46484 0.042969-0.89844-0.23047-1.0625-0.66797-0.16016-0.43359-0.011719-0.92578 0.37109-1.1953 3.5938-2.5234    4.6719-7.375 2.4883-11.184-0.39453 0.22266-0.78906 0.44141-1.1914 0.66406l-2.9297 3.2344h-0.003907c-0.33984 0.375-0.90234 0.44531-1.3242 0.16797l-4.6992    1.3477-2.5312 2.793v0.003906c-0.38281 0.41797-1.0312 0.44922-1.4492 0.070313l-6.7969-6.1562c-0.41797-0.37891-0.45312-1.0273-0.070312-1.4492l2.5352-2.8008    0.87891-4.8008-0.003906 0.003906c-0.32031-0.39453-0.30469-0.96094 0.035156-1.3398l2.9414-3.2461c0.17578-0.41797 0.35547-0.83203    0.53906-1.2383h-0.003906c-4.0039-1.8008-8.7227-0.25391-10.883 3.5703-0.23047 0.41016-0.71094 0.60938-1.1641 0.48828s-0.76562-0.53125-0.76172-1.0039c-0.22656-4.9453 1.9883-9.6836 5.9219-12.688 3.9375-3.0039 9.0938-3.8867 13.805-2.3633 7.293-9.6055 16.633-14.074 28.027-13.398v-0.003906c0.48047 0.03125 0.87891 0.39062 0.95312 0.86719 1.332 7.3438-0.089843 14.926-3.9922 21.289-1.8242 2.9258-4.0391 5.5898-6.582 7.918zm-9.4844 7.0352v0.003906c2.0859 3.6172 1.8398 8.1289-0.625 11.5 3.4609-1.0391 6.3398-3.4688 7.9453-6.707 1.6094-3.2383 1.8008-6.9961 0.53125-10.383-2.4648 2.0664-5.0898 3.9375-7.8516 5.5859zm13.18-14.301c-0.64453-1.0859-1.3477-2.1367-2.1133-3.1406l-1.0703 7.0078h0.003907c1.1484-1.2109 2.2109-2.5039 3.1797-3.8672zm-18.754-10.238 6.9062-1.7461c-1.0703-0.67578-2.1836-1.2891-3.3281-1.832-1.2773    1.1055-2.4766 2.3008-3.582 3.5781zm-4.6484 20.801 5.1758 4.6914-1.6797 1.8516-10.379-9.4062 1.6797-1.8516 5.1992 4.7148zm27.832-20.055c-5.2969-0.5-9.6562-4.3828-10.762-9.5859-2.5273 0.93359-4.9102 2.2266-7.0664 3.8398 1.6133 0.83594 3.168 1.7891 4.6406 2.8477 0.33203 0.24219 0.49219 0.65234 0.41016 1.0508-0.085938 0.40234-0.39844 0.71484-0.79688 0.79688l-11.742 2.9727c-2.6211 3.6367-4.8242 7.5625-6.5586 11.699l4.6602 4.2188 5.3477-5.8984h-0.003906c0.38281-0.42188 1.0312-0.45312 1.4492-0.070313 0.42187 0.37891 0.45312 1.0273 0.074218 1.4492l-5.3477 5.8984 4.6367 4.1992-0.003907    0.003906c3.9297-2.1289 7.6094-4.6914 10.965-7.6406l0.039063-0.035157 1.8281-12v-0.003906c0.0625-0.41016 0.36328-0.74219    0.76562-0.84375 0.40234-0.10156 0.82812 0.046875 1.0781 0.375 0.78906 0.91406 1.5234 1.8516 2.1953 2.8008 0.35156 0.49609    0.6875 1 1.0078 1.5117 1.4297-2.3555 2.5039-4.9141 3.1836-7.5859zm-8.793-10.227c0.85547 4.5117 4.6445 7.8789 9.2227 8.2031    0.51172-3.0664 0.55078-6.1914 0.11328-9.2695-3.1484-0.13672-6.3008 0.22656-9.3359 1.0664zm-4.2188 16.789h-0.003906c-0.046876-0.91016-0.53906-1.7383-1.3164-2.2109-0.78125-0.47266-1.7422-0.52734-2.5742-0.15234-0.82812 0.37891-1.4141 1.1445-1.5703 2.043-0.15234 0.89844 0.14844 1.8125 0.80469 2.4453 0.035156 0.027343 0.070312 0.058593 0.10156 0.089843 1.1055 0.96484 2.7773 0.89453 3.7969-0.16797 0.03125-0.035156 0.058594-0.066406 0.089844-0.097656 0.46875-0.53906 0.71094-1.2383 0.67578-1.9492zm0.47656-3.4258v0.003906c-1.4375-1.3047-3.5195-1.6172-5.2734-0.78906-1.7578 0.82422-2.8477 2.6211-2.7617 4.5625 0.085938 1.9375 1.3281 3.6328 3.1484 4.3008 1.8242 0.66797 3.8672 0.17578 5.1836-1.25 0.87109-0.94141 1.3281-2.1914 1.2734-3.4727-0.054688-1.2812-0.62109-2.4883-1.5703-3.3516zm-29.102 27.188-4.4961 4.4961c-0.19531 0.19141-0.30859 0.45703-0.30859 0.73047-0.003906 0.27344 0.10547 0.53906 0.30078 0.73438 0.19531 0.19531 0.45703 0.30469 0.73437 0.30078 0.27344 0 0.53516-0.10938 0.73047-0.30469l4.4922-4.4922v-0.003906c0.40234-0.40234 0.40234-1.0547 0-1.457-0.40234-0.40234-1.0547-0.40234-1.457 0zm3.6992 1.8711-4.4922 4.4922v0.003906c-0.20703 0.19141-0.33203 0.45703-0.33594 0.73828-0.007813 0.28125 0.10156 0.55469    0.29687 0.75391 0.19922 0.19922 0.47266 0.30859 0.75391 0.30078 0.28125-0.003906 0.54688-0.125 0.73828-0.33594l4.4922-4.4922c0.40234-0.40234 0.40234-1.0547 0-1.457-0.40234-0.40234-1.0547-0.40234-1.457 0zm5.1992-45.844-12.34 0.003906v9.3359h12.34zm-13.371-2.0625 0.003906 0.003906c-0.57031 0-1.0312 0.45703-1.0352 1.0273v11.398c0 0.57031 0.46094 1.0312 1.0312 1.0312h14.402c0.56641 0 1.0312-0.46094 1.0312-1.0312v-11.398c0-0.57031-0.46094-1.0312-1.0312-1.0312zm51.539-3.8086-56.844 0.003906c-1.0039 0.003907-1.8203 0.82031-1.8242 1.8242v75.785h-3.8281v-80.711h62.5v3.1016zm-46.602 73.914 1.4062 2.4336 0.007812 0.003907c0.15625    0.27734 0.4375 0.46484 0.75391 0.50781s0.63281-0.066406 0.85938-0.29297l4.6289-4.625c0.40234-0.40234 0.40234-1.0547    0-1.457-0.40625-0.40234-1.0586-0.40234-1.4609 0l-3.6797 3.6797-0.73437-1.2734v0.003907c-0.28516-0.49219-0.91016-0.66016-1.4023-0.37891-0.49219 0.28516-0.66016 0.91016-0.37891 1.4023zm17.297-2.1523h20.141c0.57031 0 1.0312-0.46094 1.0312-1.0312s-0.46094-1.0312-1.0312-1.0312h-20.141c-0.57031 0-1.0312 0.46094-1.0312 1.0312s0.46094 1.0312 1.0312 1.0312zm0 5.6016 25.555-0.003907c0.27734 0.011719 0.55078-0.09375 0.75-0.28906 0.19922-0.19531 0.3125-0.46094 0.3125-0.73828 0-0.28125-0.11328-0.54688-0.3125-0.74219s-0.47266-0.29688-0.75-0.28906h-25.555c-0.55859 0.015624-1 0.47266-1 1.0312 0 0.55469 0.44141 1.0117 1 1.0273zm-8.2539-8.9609-10.266-0.003906v10.262h10.266v-10.266zm-11.297-2.0625c-0.57031 0-1.0312 0.46094-1.0312 1.0312v12.32c0 0.57031 0.46094 1.0312 1.0312 1.0312h12.328c0.56641 0 1.0273-0.46094 1.0273-1.0312v-12.328c0-0.56641-0.46094-1.0273-1.0273-1.0273zm59.148-0.18359h-6.7383l3.3672 5.9609zm-6.7422-43.918h6.75l-0.003906-1.4844c0-0.070312-0.042969 0.082032-0.11328 0.042969-0.33203-0.16016-0.69531-0.23828-1.0664-0.22656h-4.3867c-0.36719-0.011719-0.73438 0.066406-1.0664 0.22656-0.070312 0.039063-0.11328-0.11328-0.11328-0.042969zm-3.3164 3.9922 13.379 0.003906h0.070313v-1.9258h-13.52v1.9219-0.003906c0.023438 0.003906 0.046876 0.007812 0.070313 0.007812zm0.53125 7.3633v31.531c0 0.21484 0.0625 0.42188    0.1875 0.59375l4.9414 8.7461v8.3125h-62.5v-80.711h62.5v16.441h-1.1641c-1.4766 0-3.2422 0.73047-3.2422 2.2461v1.4844h-1.2539c-1.1133-0.054688-2.0664 0.79687-2.1328 1.9102v2.2383c0.035157 0.91797 0.70313 1.6875 1.6094 1.8516l-0.011719 3.3398c-0.023438 0.81641 0.37891 1.582 1.0664 2.0234zm13.375-5.3555 0.011719 3.3398c0.019531 0.8125-0.38281 1.5781-1.0703 2.0195v31.527c0.003907 0.21484-0.0625 0.42188-0.1875 0.59375l-4.9414 8.7461v9.3438c0 0.27344-0.10547 0.53516-0.30078 0.73047-0.19141 0.19141-0.45312 0.30078-0.73047 0.30078h-64.559c-0.27344 0-0.53516-0.10938-0.72656-0.30078-0.19531-0.19531-0.30469-0.45703-0.30469-0.73047v-4.1328h-4.8594c-0.57031 0-1.0312-0.46094-1.0312-1.0312v-81.98c0.003906-1.0078 0.82031-1.8203 1.8242-1.8242h62.977c1.0039 0.003906 1.8164 0.81641 1.8203 1.8242v3.3438h4.0664l0.003906-0.003907c1.0039 0.003907 1.8203 0.81641 1.8203 1.8242v16.68c1.0977-0.12891 2.2109 0.039062 3.2227 0.48438 0.69141 0.32031 1.1523 1 1.1836 1.7617v1.4844h1.2539c1.1133-0.054688 2.0664 0.79687 2.1328 1.9102v2.2383c-0.027344 0.91797-0.69531 1.6953-1.6016 1.8516zm-12.355 0.058593v3.4648h10.281v-3.4688zm1.043 16.238h8.1992v-10.715h-8.1992zm5.1289 2.0625v8.5234l-0.003906-0.003906c0.011719 0.28125-0.09375 0.55078-0.28906 0.75-0.19531 0.20312-0.46094 0.31641-0.73828 0.31641-0.28125 0-0.54688-0.11328-0.74219-0.31641-0.19531-0.19922-0.29688-0.46875-0.28906-0.75v-8.5234h-3.0703v17.5h8.1992v-17.5z" fill-rule="evenodd"/></symbol><symbol viewBox="0 0 18 18" id="rocket-18px" xmlns="http://www.w3.org/2000/svg"><g clip-path="url(#nclip0_489_201675)"><path d="M6 8.02534C6 6.08825 6.76951 4.23049 8.13924 2.86076V2.86076C8.61463 2.38538 9.38538 2.38538 9.86077 2.86076V2.86076C11.2305 4.23049 12 6.08825 12 8.02534V11.2438C12 11.4819 12 11.6009 11.9798 11.6998C11.8997 12.0927 11.5927 12.3997 11.1998 12.4798C11.1009 12.5 10.9819 12.5 10.7438 12.5H7.25616C7.0181 12.5 6.89906 12.5 6.80017 12.4798C6.40731 12.3997 6.10029 12.0927 6.02017 11.6998C6 11.6009 6 11.4819 6 11.2438V8.02534Z"/><path d="M9.5 6C9.5 6.27614 9.27614 6.5 9 6.5C8.72386 6.5 8.5 6.27614 8.5 6C8.5 5.72386 8.72386 5.5 9 5.5C9.27614 5.5 9.5 5.72386 9.5 6Z"/><path d="M12 7L13.2147 9.67239C13.7936 10.946 14.0831 11.5828 13.7878 12.0414C13.4925 12.5 12.793 12.5 11.394 12.5H6.60601C5.20703 12.5 4.50754 12.5 4.21223 12.0414C3.91692 11.5828 4.20637 10.946 4.78528 9.67239L6 7" stroke-linecap="round"/><path d="M9 14.5C9 15.281 9 16 9 16M11 14.5V15M7 14.5V15" stroke-linecap="round"/></g><defs><clipPath id="nclip0_489_201675"><rect width="18" height="18"/></clipPath></defs></symbol><symbol viewBox="0 0 40 40" id="telegram" xmlns="http://www.w3.org/2000/svg"><path d="M20.044 40H19.956C8.95236 40 0 31.0476 0 20.044V19.956C0 8.95236 8.95236 0 19.956 0H20.044C31.0476 0 40 8.95236 40 19.956V20.044C40 31.0476 31.0476 40 20.044 40ZM19.956 1.35396C9.69839 1.35396 1.35396 9.69839 1.35396 19.956V20.044C1.35396 30.3016 9.69839 38.646 19.956 38.646H20.044C30.3016 38.646 38.646 30.3016 38.646 20.044V19.956C38.646 9.69839 30.3016 1.35396 20.044 1.35396H19.956Z"/><path d="M7.99654 19.34C8.05069 19.3129 8.10488 19.2872 8.15768 19.2628C9.07567 18.8377 10.0058 18.4396 10.9347 18.0415C10.9847 18.0415 11.0687 17.9833 11.1161 17.9644C11.1878 17.9332 11.2596 17.9034 11.3314 17.8723C11.4695 17.8127 11.6076 17.7545 11.7443 17.6949C12.0205 17.5771 12.2954 17.4593 12.5716 17.3416C13.1226 17.106 13.6737 16.8704 14.2247 16.6334C15.3269 16.1623 16.4304 15.6897 17.5325 15.2185C18.6346 14.7473 19.7381 14.2748 20.8402 13.8036C21.9423 13.3325 23.0458 12.8599 24.1479 12.3888C25.25 11.9176 26.3535 11.4451 27.4557 10.9739C27.7007 10.8683 27.9661 10.7112 28.2288 10.6652C28.4495 10.6259 28.6647 10.5501 28.8868 10.5081C29.3079 10.4282 29.7723 10.3957 30.1757 10.5704C30.3152 10.6313 30.4438 10.7166 30.5508 10.8236C31.0626 11.33 30.9908 12.1613 30.8825 12.8735C30.1284 17.8371 29.3742 22.8021 28.6187 27.7657C28.5158 28.4467 28.375 29.1941 27.8375 29.6247C27.3825 29.9889 26.7353 30.0295 26.1734 29.8751C25.6115 29.7194 25.116 29.3931 24.6299 29.0722C22.6139 27.7372 20.5965 26.4022 18.5805 25.0672C18.1012 24.7504 17.5677 24.3361 17.5731 23.7607C17.5758 23.414 17.783 23.1053 17.9942 22.8305C19.7462 20.545 22.274 18.9744 24.1547 16.7946C24.4201 16.4872 24.6286 15.9321 24.2644 15.7547C24.0477 15.6491 23.7986 15.7926 23.6009 15.9294C21.115 17.6556 18.6306 19.3833 16.1447 21.1096C15.3337 21.6728 14.4834 22.2523 13.5058 22.3904C12.6312 22.515 11.7511 22.2713 10.9049 22.0222C10.1954 21.8137 9.48725 21.5997 8.78184 21.379C8.40679 21.2626 8.01956 21.1367 7.72981 20.8727C7.44006 20.6086 7.27355 20.1646 7.44821 19.8125C7.55788 19.5918 7.77046 19.4524 7.99386 19.3386L7.99654 19.34Z"/></symbol></svg>