<?xml version="1.0" encoding="utf-8"?><svg viewBox="0 0 1303.5 943.5" xmlns="http://www.w3.org/2000/svg" xmlns:xlink="http://www.w3.org/1999/xlink"><style>:root>svg{display:none}:root>svg:target{display:block}</style><svg version="1.1" id="JJ01" x="0" y="0" viewBox="0 0 1303.5 943.5" style="enable-background:new 0 0 1303.5 943.5" xml:space="preserve" xmlns="http://www.w3.org/2000/svg"><style>.ist0{fill:#48276c}</style><path class="ist0" d="M1097.7 616.4C1055.8 681.1 996.5 722.3 920 740c-76.5 17.7-170.7 16.2-282.5-4.4l11-123.6c82.4 17.7 150.8 22.1 205.2 13.2 54.4-8.8 96.7-36.1 126.9-81.7 27.2-41.2 45.1-101.7 53.8-181.3h-389c-10.3 107.5-35 191.4-74.1 251.7-41.9 64.7-101.2 105.9-177.7 123.6-33.8 7.8-71 11.8-111.7 12.2 85.3 115.7 222.6 190.7 377.4 190.7 217.8 0 400.9-148.6 453.5-349.9-4.7 9.1-9.8 17.7-15.1 25.9zM454.4 541.1c26.9-40.8 44.8-100.4 53.5-178.9H203.5c-8.4 35.1-12.9 71.8-12.9 109.5 0 53.5 9 104.9 25.5 152.8 42 4 79.1 3.5 111.4-1.7 54.4-8.8 96.7-36.1 126.9-81.7zM659.3 3.1c-165.8 0-311.5 86.1-394.9 216.1h789.7C970.9 89.2 825.2 3.1 659.3 3.1z"/></svg><svg fill="none" viewBox="0 0 25 24" id="Up" xmlns="http://www.w3.org/2000/svg"><circle cx="12.853" cy="12" r="11.5" stroke="#fff"/><path fill-rule="evenodd" clip-rule="evenodd" d="m9.159 9.478 3.457-3.086a.59.59 0 0 1 .768 0l3.457 3.086a.449.449 0 0 1 0 .685.59.59 0 0 1-.768 0l-2.53-2.258v9.345h-1.086V7.905l-2.53 2.258a.59.59 0 0 1-.768 0 .449.449 0 0 1 0-.685Z" fill="#fff"/></svg><svg viewBox="0 0 16 9" fill="none" id="arrow" xmlns="http://www.w3.org/2000/svg"><path fill-rule="evenodd" clip-rule="evenodd" d="m12.772.477 3.086 3.457a.59.59 0 0 1 0 .768L12.772 8.16a.449.449 0 0 1-.685 0 .59.59 0 0 1 0-.768l2.258-2.53H0V3.775h14.345l-2.258-2.53a.59.59 0 0 1 0-.768.449.449 0 0 1 .685 0Z" fill="#000"/></svg><svg viewBox="0 0 24 24" fill="none" id="arrow-down" xmlns="http://www.w3.org/2000/svg"><g clip-path="url(#aa)"><path d="M5.636 18.364 18.364 5.636m0 0V15m0-9.364H9" stroke="#fff" stroke-width="2" stroke-linecap="round" stroke-linejoin="round"/></g><defs><clipPath id="aa"><path fill="#fff" transform="rotate(180 12 12)" d="M0 0h24v24H0z"/></clipPath></defs></svg><svg viewBox="0 0 24 24" fill="none" id="arrow-right" xmlns="http://www.w3.org/2000/svg"><g clip-path="url(#clip0_1_23487)"><path d="M3 12h18m0 0-5.333 7M21 12l-5.333-7" stroke="#fff" stroke-width="2" stroke-linecap="round" stroke-linejoin="round"/></g></svg><svg fill="none" viewBox="0 0 24 24" id="burger-menu-24px" xmlns="http://www.w3.org/2000/svg"><g clip-path="url(#da)"><path d="M5 12h14M5 7h14M5 17h14" stroke="#fff" stroke-width="2" stroke-linecap="round"/></g><defs><clipPath id="da"><path fill="#fff" d="M0 0h24v24H0z"/></clipPath></defs></svg><svg fill="none" viewBox="0 0 24 24" id="cursor-pointer-24px" xmlns="http://www.w3.org/2000/svg"><g clip-path="url(#ea)"><path d="m15.06 12.865 3.765-1.534c.93-.379 1.394-.568 1.399-.899.005-.33-.453-.534-1.37-.941l-7.35-3.267c-4.005-1.78-6.007-2.67-6.979-1.699-.971.972-.081 2.974 1.699 6.979l3.267 7.35c.407.917.61 1.375.941 1.37.33-.005.52-.47.899-1.399l1.534-3.765h0c.313-.77.47-1.154.755-1.44.286-.285.67-.442 1.44-.755Z" stroke="#fff" stroke-width="2" stroke-linecap="round" stroke-linejoin="round"/></g><defs><clipPath id="ea"><path fill="#fff" d="M0 0h24v24H0z"/></clipPath></defs></svg><svg viewBox="0 0 98 96" id="github" xmlns="http://www.w3.org/2000/svg"><path fill-rule="evenodd" clip-rule="evenodd" d="M48.854 0C21.839 0 0 22 0 49.217c0 21.756 13.993 40.172 33.405 46.69 2.427.49 3.316-1.059 3.316-2.362 0-1.141-.08-5.052-.08-9.127-13.59 2.934-16.42-5.867-16.42-5.867-2.184-5.704-5.42-7.17-5.42-7.17-4.448-3.015.324-3.015.324-3.015 4.934.326 7.523 5.052 7.523 5.052 4.367 7.496 11.404 5.378 14.235 4.074.404-3.178 1.699-5.378 3.074-6.6-10.839-1.141-22.243-5.378-22.243-24.283 0-5.378 1.94-9.778 5.014-13.2-.485-1.222-2.184-6.275.486-13.038 0 0 4.125-1.304 13.426 5.052a46.97 46.97 0 0 1 12.214-1.63c4.125 0 8.33.571 12.213 1.63 9.302-6.356 13.427-5.052 13.427-5.052 2.67 6.763.97 11.816.485 13.038 3.155 3.422 5.015 7.822 5.015 13.2 0 18.905-11.404 23.06-22.324 24.283 1.78 1.548 3.316 4.481 3.316 9.126 0 6.6-.08 11.897-.08 13.526 0 1.304.89 2.853 3.316 2.364 19.412-6.52 33.405-24.935 33.405-46.691C97.707 22 75.788 0 48.854 0z" fill="#fff"/></svg><svg fill="none" viewBox="0 0 18 18" id="hammer" xmlns="http://www.w3.org/2000/svg"><g clip-path="url(#ga)" stroke="#fff"><path d="m14.061 6.315.162.095c.32.187.429.6.245.924L13.09 9.752a.662.662 0 0 1-.912.248l-.162-.095a1.647 1.647 0 0 1-.799-1.216.54.54 0 0 0-.764-.428l-.418.196a.575.575 0 0 1-.535-.024l-2.44-1.27a.593.593 0 0 1-.262-.694l.183-.764c.057-.176-.015-.373-.183-.446-1.342-.59-3.355.331-3.355-.688s3.382-2.333 5.628-1.019l2.475 1.291c.164.096.27.266.288.457l.041.465c.033.37.41.6.748.457.468-.198 1-.164 1.438.093Z"/><path d="m6.897 7-3.802 6.745a.594.594 0 0 0 .196.832l1.061.621c.29.17.66.058.81-.244l3.78-6.874"/></g><defs><clipPath id="ga"><path fill="#fff" d="M0 0h18v18H0z"/></clipPath></defs></svg><svg fill="none" viewBox="0 0 40 40" id="instagram" xmlns="http://www.w3.org/2000/svg"><path d="M20.044 40h-.088C8.952 40 0 31.048 0 20.044v-.088C0 8.952 8.952 0 19.956 0h.088C31.048 0 40 8.952 40 19.956v.088C40 31.048 31.048 40 20.044 40Zm-.088-38.646c-10.258 0-18.602 8.344-18.602 18.602v.088c0 10.258 8.344 18.602 18.602 18.602h.088c10.258 0 18.602-8.344 18.602-18.602v-.088c0-10.258-8.344-18.602-18.602-18.602h-.088Z" fill="#fff"/><path d="M25.98 8.54H14.02a5.998 5.998 0 0 0-5.99 5.99v10.94a5.998 5.998 0 0 0 5.99 5.992H25.98a5.998 5.998 0 0 0 5.991-5.991V14.53a5.998 5.998 0 0 0-5.991-5.992Zm-15.836 5.99a3.883 3.883 0 0 1 3.877-3.877H25.98a3.883 3.883 0 0 1 3.877 3.878v10.94a3.882 3.882 0 0 1-3.877 3.877H14.02a3.882 3.882 0 0 1-3.877-3.877V14.53Z" fill="#fff"/><path d="M20 25.572A5.58 5.58 0 0 0 25.574 20c0-3.073-2.499-5.573-5.572-5.573A5.578 5.578 0 0 0 14.428 20c0 3.074 2.5 5.573 5.573 5.573Zm0-9.03A3.463 3.463 0 0 1 23.46 20 3.463 3.463 0 0 1 20 23.46 3.463 3.463 0 0 1 16.542 20a3.463 3.463 0 0 1 3.46-3.459ZM26.09 15.327a1.502 1.502 0 1 0-1.502-1.502c0 .829.673 1.502 1.501 1.502Z" fill="#fff"/></svg><svg fill="none" viewBox="0 0 40 40" id="linkedin" xmlns="http://www.w3.org/2000/svg"><path d="M20.044 40h-.088C8.952 40 0 31.048 0 20.044v-.088C0 8.952 8.952 0 19.956 0h.088C31.048 0 40 8.952 40 19.956v.088C40 31.048 31.048 40 20.044 40Zm-.088-38.646c-10.258 0-18.602 8.344-18.602 18.602v.088c0 10.258 8.344 18.602 18.602 18.602h.088c10.258 0 18.602-8.344 18.602-18.602v-.088c0-10.258-8.344-18.602-18.602-18.602h-.088Z" fill="#fff"/><path d="M9.893 13.522a2.296 2.296 0 0 1-.762-1.753c0-.696.255-1.307.762-1.78.51-.473 1.165-.71 1.968-.71.803 0 1.432.237 1.94.71.509.472.762 1.066.762 1.78 0 .713-.254 1.28-.762 1.753-.51.473-1.155.71-1.94.71-.786 0-1.459-.237-1.968-.71Zm4.242 2.71V30.72H9.558V16.233h4.577ZM29.374 17.664c.998 1.083 1.496 2.57 1.496 4.462v8.338h-4.347v-7.75c0-.955-.248-1.697-.742-2.225s-1.16-.793-1.995-.793c-.834 0-1.5.264-1.994.793-.494.528-.742 1.27-.742 2.225v7.75h-4.373V16.192h4.373v1.893c.443-.631 1.04-1.13 1.79-1.496.75-.367 1.594-.55 2.532-.55 1.67 0 3.006.541 4.002 1.625Z" fill="#fff"/></svg><svg fill="none" viewBox="0 0 23 19" id="mail" xmlns="http://www.w3.org/2000/svg"><path d="M20.429 1.5H2.143C1.512 1.5 1 2.012 1 2.643v13.714c0 .631.512 1.143 1.143 1.143h18.286c.63 0 1.142-.512 1.142-1.143V2.643c0-.631-.511-1.143-1.142-1.143Z" stroke="#fff" stroke-width="2" stroke-linecap="round"/><path d="M1 3.214 11.286 9.5 21.57 3.214" stroke="#fff" stroke-width="2" stroke-linecap="round"/></svg><svg version="1.0" viewBox="0 0 100 125" xml:space="preserve" id="noun-arrow-79401" xmlns="http://www.w3.org/2000/svg"><path d="m44.846 71.706-1.915-1.94L60.18 50.714 42.931 31.662l1.915-1.94 21.259 20.992z"/><path d="M50.001 10.333c22.056 0 39.999 17.943 39.999 40s-17.943 40-39.999 40C27.944 90.333 10 72.39 10 50.333s17.944-40 40.001-40zm0 76.165c19.941 0 36.164-16.223 36.164-36.165S69.942 14.168 50.001 14.168 13.835 30.391 13.835 50.333 30.06 86.498 50.001 86.498z"/><text y="115" font-size="5" font-weight="bold" font-family="'Helvetica Neue', Helvetica, Arial-Unicode, Arial, Sans-serif">Created by Mundo</text><text y="120" font-size="5" font-weight="bold" font-family="'Helvetica Neue', Helvetica, Arial-Unicode, Arial, Sans-serif">from the Noun Project</text></svg><svg viewBox="-5 -10 110 135" fill="#fff" id="project" xmlns="http://www.w3.org/2000/svg"><path d="m32.168 54.312-1.355 1.496 5.273 4.777 1.355-1.5-5.273-4.777zM42.34 56.96l-3.184.914-5.945-5.386.602-3.262 8.535 7.73zm-1.176-25.422A13.06 13.06 0 0 0 25 41.656a10.55 10.55 0 0 1 11.387-1.758 60.421 60.421 0 0 1 4.778-8.364zm19.688 14.898v.004a15.086 15.086 0 0 1-.992 13.977 15.089 15.089 0 0 1-12.055 7.145 1.027 1.027 0 0 1-.691-1.863 8.503 8.503 0 0 0 2.488-11.184c-.395.222-.79.44-1.191.664l-2.93 3.234h-.004c-.34.375-.902.445-1.324.168l-4.7 1.348-2.53 2.793v.004a1.03 1.03 0 0 1-1.45.07l-6.797-6.156a1.025 1.025 0 0 1-.07-1.45l2.535-2.8.879-4.801-.004.004a1.03 1.03 0 0 1 .035-1.34l2.942-3.246c.175-.418.355-.832.539-1.238h-.004a8.497 8.497 0 0 0-10.883 3.57 1.03 1.03 0 0 1-1.926-.516 15.097 15.097 0 0 1 19.727-15.051c7.293-9.606 16.633-14.074 28.027-13.398v-.004c.48.031.879.39.953.867a30.364 30.364 0 0 1-3.992 21.29 37.983 37.983 0 0 1-6.582 7.917zm-9.484 7.036v.004a10.556 10.556 0 0 1-.625 11.5 13.064 13.064 0 0 0 8.476-17.09 60.455 60.455 0 0 1-7.851 5.585zm13.18-14.301a32.693 32.693 0 0 0-2.114-3.141l-1.07 7.008h.004a35.52 35.52 0 0 0 3.18-3.867zM45.794 28.933l6.906-1.747a31.64 31.64 0 0 0-3.328-1.832 35.203 35.203 0 0 0-3.582 3.579zm-4.649 20.8 5.176 4.692-1.68 1.852-10.379-9.407 1.68-1.851 5.2 4.715zM68.977 29.68a12.172 12.172 0 0 1-10.762-9.586 27.988 27.988 0 0 0-7.066 3.84 37.57 37.57 0 0 1 4.64 2.847 1.03 1.03 0 0 1-.387 1.848L43.662 31.6A59.1 59.1 0 0 0 37.102 43.3l4.66 4.218 5.348-5.898h-.004a1.022 1.022 0 0 1 1.45-.07c.421.379.453 1.027.074 1.449l-5.348 5.898 4.637 4.2-.004.003a59.65 59.65 0 0 0 10.965-7.64l.039-.035 1.828-12v-.004c.062-.41.363-.742.766-.844.402-.102.828.047 1.078.375.789.914 1.523 1.852 2.195 2.8.352.497.687 1 1.008 1.512a27.87 27.87 0 0 0 3.183-7.585zm-8.793-10.227a10.114 10.114 0 0 0 9.223 8.203c.512-3.067.55-6.192.113-9.27-3.148-.137-6.3.227-9.336 1.067zM55.966 36.24h-.004a2.752 2.752 0 0 0-1.317-2.211 2.77 2.77 0 0 0-2.574-.153 2.755 2.755 0 0 0-.766 4.488c.036.028.07.06.102.09a2.753 2.753 0 0 0 3.797-.167 2.765 2.765 0 0 0 .766-2.047zm.476-3.426v.004a4.8 4.8 0 0 0-5.273-.79 4.802 4.802 0 0 0-2.762 4.563 4.809 4.809 0 0 0 8.332 3.05 4.81 4.81 0 0 0-.297-6.823zM27.34 60.003l-4.496 4.496a1.03 1.03 0 0 0-.008 1.465c.196.195.457.304.735.3.273 0 .535-.109.73-.304l4.492-4.492v-.004a1.03 1.03 0 1 0-1.457-1.457zm3.7 1.87-4.493 4.493v.004a1.04 1.04 0 0 0-.04 1.492c.2.2.474.309.755.301.281-.004.547-.125.738-.336l4.492-4.492a1.03 1.03 0 1 0-1.457-1.457zm5.199-45.843-12.34.004v9.336h12.34zm-13.371-2.063.003.004c-.57 0-1.03.457-1.035 1.028v11.398c0 .57.461 1.03 1.031 1.03H37.27c.567 0 1.032-.46 1.032-1.03V14.999c0-.57-.461-1.032-1.032-1.032zm51.539-3.808-56.844.004a1.834 1.834 0 0 0-1.825 1.824v75.785H11.91V7.06h62.5v3.102zM27.805 84.073l1.406 2.433.008.004a1.023 1.023 0 0 0 1.613.215L35.46 82.1a1.03 1.03 0 0 0 0-1.457 1.035 1.035 0 0 0-1.461 0l-3.68 3.68-.734-1.274v.004a1.029 1.029 0 0 0-1.403-.379c-.492.286-.66.91-.378 1.403zm17.297-2.153h20.14a1.03 1.03 0 1 0 0-2.062h-20.14a1.03 1.03 0 1 0 0 2.062zm0 5.602 25.555-.004c.277.012.55-.094.75-.289a1.035 1.035 0 0 0 0-1.48 1.03 1.03 0 0 0-.75-.29H45.102a1.029 1.029 0 0 0 0 2.06zm-8.254-8.96-10.266-.005V88.82h10.266V78.553zM25.55 76.498c-.57 0-1.032.46-1.032 1.03v12.32c0 .571.461 1.032 1.032 1.032h12.328a1.03 1.03 0 0 0 1.027-1.031V77.522c0-.567-.461-1.027-1.027-1.027zm59.148-.184H77.96l3.368 5.961zm-6.743-43.918h6.75l-.003-1.484c0-.07-.043.082-.114.043a2.28 2.28 0 0 0-1.066-.227h-4.387a2.291 2.291 0 0 0-1.066.227c-.07.039-.114-.114-.114-.043zM74.64 36.39l13.38.004h.07v-1.926H74.57v1.922-.004a.43.43 0 0 0 .07.008zm.531 7.364v31.53c0 .215.063.422.188.594l4.941 8.746v8.313H17.8V12.225h62.5v16.441h-1.164c-1.476 0-3.242.73-3.242 2.246v1.484H74.64a2.036 2.036 0 0 0-2.133 1.91v2.239a1.957 1.957 0 0 0 1.61 1.852l-.012 3.34a2.32 2.32 0 0 0 1.066 2.023zm13.375-5.356.012 3.34a2.33 2.33 0 0 1-1.07 2.02v31.526a.977.977 0 0 1-.188.594l-4.941 8.746v9.344a1.028 1.028 0 0 1-1.031 1.031h-64.56a1.032 1.032 0 0 1-1.031-1.031v-4.133h-4.86a1.03 1.03 0 0 1-1.03-1.03V6.823a1.831 1.831 0 0 1 1.824-1.825h62.977a1.828 1.828 0 0 1 1.82 1.824v3.344h4.067l.004-.004a1.825 1.825 0 0 1 1.82 1.824v16.68a6.206 6.206 0 0 1 3.223.485c.69.32 1.152 1 1.183 1.761v1.485h1.254a2.036 2.036 0 0 1 2.133 1.91v2.238a1.936 1.936 0 0 1-1.602 1.852zm-12.355.059v3.465h10.281v-3.47zm1.043 16.238h8.2V43.979h-8.2zm5.13 2.062v8.524l-.005-.004c.012.28-.093.55-.289.75a1.023 1.023 0 0 1-1.48 0 1.024 1.024 0 0 1-.29-.75v-8.524h-3.07v17.5h8.2v-17.5z" fill-rule="evenodd"/></svg><svg fill="none" viewBox="0 0 18 18" id="rocket-18px" xmlns="http://www.w3.org/2000/svg"><g clip-path="url(#na)"><path d="M6 8.025c0-1.937.77-3.795 2.14-5.164a1.217 1.217 0 0 1 1.72 0A7.304 7.304 0 0 1 12 8.025v3.219c0 .238 0 .357-.02.456a1 1 0 0 1-.78.78c-.1.02-.218.02-.456.02H7.256c-.238 0-.357 0-.456-.02a1 1 0 0 1-.78-.78C6 11.6 6 11.482 6 11.244V8.025Z" stroke="#fff"/><path d="M9.5 6a.5.5 0 1 1-1 0 .5.5 0 0 1 1 0Z" fill="#fff"/><path d="m12 7 1.215 2.672c.579 1.274.868 1.91.573 2.37-.296.458-.995.458-2.394.458H6.606c-1.399 0-2.098 0-2.394-.459-.295-.458-.006-1.095.573-2.369L6 7M9 14.5V16m2-1.5v.5m-4-.5v.5" stroke="#fff" stroke-linecap="round"/></g><defs><clipPath id="na"><path fill="#fff" d="M0 0h18v18H0z"/></clipPath></defs></svg><svg fill="none" viewBox="0 0 40 40" id="telegram" xmlns="http://www.w3.org/2000/svg"><path d="M20.044 40h-.088C8.952 40 0 31.048 0 20.044v-.088C0 8.952 8.952 0 19.956 0h.088C31.048 0 40 8.952 40 19.956v.088C40 31.048 31.048 40 20.044 40Zm-.088-38.646c-10.258 0-18.602 8.344-18.602 18.602v.088c0 10.258 8.344 18.602 18.602 18.602h.088c10.258 0 18.602-8.344 18.602-18.602v-.088c0-10.258-8.344-18.602-18.602-18.602h-.088Z" fill="#fff"/><path d="m7.997 19.34.16-.077c.919-.425 1.849-.823 2.778-1.222.05 0 .134-.058.181-.077.072-.03.144-.06.215-.092.139-.06.277-.117.413-.177.277-.118.551-.236.828-.353l1.653-.709c1.102-.47 2.205-.943 3.307-1.414l3.308-1.415 3.308-1.415 3.308-1.415c.245-.106.51-.263.773-.309.22-.04.436-.115.658-.157.42-.08.885-.112 1.289.062.14.061.268.147.375.254.512.506.44 1.337.332 2.05l-2.264 14.892c-.103.68-.244 1.428-.782 1.859-.454.364-1.102.404-1.664.25-.561-.156-1.057-.482-1.543-.803l-6.05-4.005c-.479-.317-1.012-.73-1.007-1.306.003-.347.21-.656.421-.93 1.752-2.286 4.28-3.857 6.16-6.036.266-.308.475-.863.11-1.04-.216-.106-.465.038-.663.174l-7.456 5.18c-.811.564-1.662 1.143-2.64 1.281-.874.125-1.754-.119-2.6-.368a127.54 127.54 0 0 1-2.123-.643c-.375-.116-.762-.242-1.052-.506-.29-.264-.456-.708-.282-1.06.11-.221.322-.36.546-.474l.003.001Z" fill="#fff"/></svg></svg>